<svg width="981" height="510" viewBox="0 0 981 510" fill="none" xmlns="http://www.w3.org/2000/svg">
<path d="M970.884 92.4075C964.828 81.5887 956.325 72.3572 946.065 65.4605C935.804 58.5638 924.074 54.1957 911.824 52.7099C899.574 51.2242 887.148 52.6625 875.554 56.9085C863.959 61.1544 853.52 68.0887 845.084 77.1497C836.647 86.2108 830.449 97.1439 826.992 109.064C823.535 120.984 822.915 133.556 825.184 145.762C827.452 157.967 832.545 169.464 840.05 179.32C847.555 189.177 857.26 197.116 868.381 202.496L883.029 171.826C876.694 168.762 871.164 164.239 866.889 158.623C862.613 153.008 859.712 146.459 858.42 139.505C857.127 132.551 857.48 125.389 859.45 118.598C861.419 111.808 864.95 105.579 869.756 100.417C874.563 95.2549 880.51 91.3045 887.115 88.8855C893.721 86.4666 900.8 85.6472 907.778 86.4936C914.757 87.3401 921.44 89.8286 927.285 93.7576C933.131 97.6866 937.975 102.946 941.425 109.109L970.884 92.4075Z" fill="#6070FF"/>
<path d="M172.934 498.931C174.564 496.978 175.713 494.666 176.29 492.183C176.866 489.7 176.853 487.115 176.252 484.638C175.652 482.16 174.479 479.86 172.831 477.924C171.183 475.987 169.104 474.468 166.764 473.49C164.424 472.513 161.888 472.103 159.361 472.295C156.835 472.487 154.389 473.275 152.221 474.595C150.053 475.916 148.225 477.731 146.884 479.895C145.543 482.059 144.727 484.51 144.503 487.05L151.419 487.669C151.547 486.222 152.012 484.825 152.776 483.593C153.54 482.36 154.581 481.326 155.816 480.574C157.051 479.821 158.445 479.372 159.884 479.263C161.323 479.154 162.768 479.387 164.101 479.944C165.435 480.501 166.619 481.366 167.558 482.47C168.497 483.573 169.165 484.883 169.507 486.295C169.849 487.706 169.856 489.179 169.528 490.593C169.2 492.008 168.545 493.325 167.617 494.437L172.934 498.931Z" fill="#EBEBFF"/>
<rect width="143.353" height="33.1328" transform="matrix(0.864641 -0.50239 0.497614 0.867399 780.346 72.618)" fill="#EBEBFF"/>
<rect width="113.355" height="20.3675" transform="matrix(0.917248 0.398318 -0.394064 0.919083 489.495 446.129)" fill="#EBEBFF"/>
<rect width="39.3089" height="7.07306" transform="matrix(0.977121 -0.212684 -0.210112 -0.977677 462.704 101.264)" fill="#6070FF"/>
<rect width="76.4944" height="13.681" transform="matrix(0.690582 -0.723254 0.718845 0.69517 0.601562 71.1516)" fill="#EBEBFF"/>
<ellipse cx="581.446" cy="468.37" rx="16.4873" ry="16.5926" fill="#6070FF"/>
<ellipse cx="481.118" cy="106.156" rx="8.06826" ry="8.11981" fill="#EBEBFF"/>
<path d="M852.109 397.763C852.109 412.113 840.551 423.741 826.3 423.741C812.049 423.741 800.49 412.113 800.49 397.763C800.49 383.413 812.049 371.786 826.3 371.786C840.551 371.786 852.109 383.413 852.109 397.763Z" fill="white" stroke="#EBEBFF"/>
<path d="M680.221 38.3735C680.221 31.0426 674.317 25.1051 667.04 25.1051C659.763 25.1051 653.859 31.0426 653.859 38.3735C653.859 45.7044 659.763 51.6418 667.04 51.6418C674.317 51.6418 680.221 45.7044 680.221 38.3735Z" fill="white" stroke="#EBEBFF"/>
<path d="M252.251 38.3737C252.251 41.0252 250.116 43.1692 247.489 43.1692C244.862 43.1692 242.727 41.0252 242.727 38.3737C242.727 35.7221 244.862 33.5781 247.489 33.5781C250.116 33.5781 252.251 35.7221 252.251 38.3737Z" fill="white" stroke="#EBEBFF"/>
<path d="M43.178 286.204C43.178 281.993 39.7866 278.584 35.6098 278.584C31.4329 278.584 28.0415 281.993 28.0415 286.204C28.0415 290.415 31.4329 293.824 35.6098 293.824C39.7866 293.824 43.178 290.415 43.178 286.204Z" fill="white" stroke="#EBEBFF"/>
<path d="M33.1428 52.1942C30.2028 59.1244 30.1186 66.9461 32.9089 73.9386C35.6992 80.9312 41.1354 86.5219 48.0216 89.4807C54.9077 92.4396 62.6798 92.5242 69.628 89.7161C76.5761 86.908 82.1313 81.4371 85.0714 74.5069L33.1428 52.1942Z" fill="#6070FF"/>
<path d="M155.34 459.544C155.105 462.991 156.24 466.39 158.496 468.994C160.752 471.598 163.943 473.193 167.368 473.43C170.792 473.666 174.17 472.523 176.757 470.253C179.345 467.983 180.93 464.771 181.165 461.325L155.34 459.544Z" fill="#6070FF"/>
</svg>
